<?xml version="1.0" encoding="utf-8"?>
<!-- Generator: Adobe Illustrator 12.0.0, SVG Export Plug-In . SVG Version: 6.00 Build 51448)  -->
<!DOCTYPE svg PUBLIC "-//W3C//DTD SVG 1.1//EN" "http://www.w3.org/Graphics/SVG/1.1/DTD/svg11.dtd" [
	<!ENTITY ns_svg "http://www.w3.org/2000/svg">
	<!ENTITY ns_xlink "http://www.w3.org/1999/xlink">
]>
<svg  version="1.1" id="Layer_1" xmlns="&ns_svg;" xmlns:xlink="&ns_xlink;" width="327.119" height="48.585"
	 viewBox="0 0 327.119 48.585" overflow="visible" enable-background="new 0 0 327.119 48.585" xml:space="preserve">
<g>
	<rect fill="none" width="327.119" height="48.585"/>
	<path fill="#DC3545" d="M50.646,24.132c0,7.09-1.758,12.54-5.273,16.348c-3.516,3.809-8.554,5.713-15.116,5.713
		c-6.562,0-11.601-1.904-15.116-5.713c-3.516-3.809-5.273-9.277-5.273-16.407c0-7.129,1.762-12.574,5.288-16.333
		c3.525-3.76,8.578-5.64,15.16-5.64c6.581,0,11.615,1.895,15.101,5.684C48.902,11.573,50.646,17.022,50.646,24.132z M19.39,24.13
		c0,4.784,0.908,8.386,2.724,10.807c1.816,2.421,4.53,3.631,8.143,3.631c7.245,0,10.867-4.813,10.867-14.438
		c0-9.645-3.603-14.468-10.809-14.468c-3.613,0-6.337,1.216-8.172,3.646C20.307,15.739,19.39,19.347,19.39,24.13z"/>
	<path fill="#DC3545" d="M95.056,23.768c0,7.052-2.007,12.455-6.02,16.206s-9.807,5.626-17.383,5.626H59.526V2.756h13.444
		c6.99,0,12.419,1.846,16.285,5.539S95.056,17.145,95.056,23.768z M85.622,24c0-9.204-4.061-13.807-12.182-13.807h-4.832v27.906
		h3.895C81.249,38.099,85.622,33.4,85.622,24z"/>
	<path fill="#DC3545" d="M139.47,23.768c0,7.052-2.007,12.455-6.02,16.206s-9.807,5.626-17.383,5.626H103.94V2.756h13.444
		c6.99,0,12.419,1.846,16.285,5.539S139.47,17.145,139.47,23.768z M130.036,24c0-9.204-4.061-13.807-12.182-13.807h-4.832v27.906
		h3.895C125.663,38.099,130.036,33.4,130.036,24z"/>
	<path fill="#FFFFFF" d="M172.663,34.563c0,3.574-1.313,6.406-3.939,8.496c-2.626,2.09-6.116,3.134-10.471,3.134
		c-5.233,0-9.246-0.575-12.038-1.726V41.48c3.085,1.309,7.019,1.963,11.804,1.963c3.514,0,6.301-0.805,8.361-2.418
		c2.061-1.611,3.09-3.727,3.09-6.345c0-1.621-0.342-2.964-1.025-4.028s-1.796-2.035-3.338-2.914
		c-1.543-0.879-3.809-1.826-6.795-2.842c-4.375-1.504-7.396-3.129-9.065-4.877s-2.504-4.077-2.504-6.987
		c0-3.203,1.255-5.815,3.764-7.836s5.735-3.032,9.681-3.032c4.021,0,7.801,0.758,11.335,2.275l-1.083,2.577
		c-3.555-1.484-6.952-2.227-10.193-2.227c-3.163,0-5.682,0.733-7.557,2.2s-2.812,3.462-2.812,5.985c0,1.582,0.288,2.881,0.864,3.896
		s1.518,1.929,2.826,2.739s3.554,1.782,6.736,2.915c3.339,1.152,5.848,2.271,7.527,3.354c1.679,1.084,2.904,2.314,3.676,3.691
		S172.663,32.61,172.663,34.563z"/>
	<path fill="#FFFFFF" d="M192.887,45.599h-3.018V5.568h-13.917V2.756h30.852v2.813h-13.917V45.599z"/>
	<path fill="#FFFFFF" d="M249.159,24.132c0,6.797-1.699,12.174-5.097,16.129s-8.085,5.932-14.061,5.932
		c-5.956,0-10.634-1.977-14.032-5.932c-3.397-3.955-5.096-9.352-5.096-16.188c0-6.816,1.713-12.183,5.141-16.099
		c3.427-3.916,8.109-5.875,14.046-5.875c5.976,0,10.653,1.968,14.031,5.904S249.159,17.315,249.159,24.132z M214.126,24.135
		c0,6.132,1.366,10.873,4.1,14.222c2.734,3.35,6.66,5.023,11.776,5.023c5.155,0,9.095-1.659,11.819-4.979
		c2.725-3.319,4.086-8.075,4.086-14.266c0-6.171-1.361-10.902-4.086-14.193c-2.725-3.291-6.645-4.936-11.761-4.936
		c-5.097,0-9.027,1.66-11.79,4.98C215.507,13.306,214.126,18.022,214.126,24.135z"/>
	<path fill="#FFFFFF" d="M284.786,15.07c0,4.144-1.406,7.32-4.218,9.529c-2.813,2.209-6.796,3.313-11.952,3.313h-6.619v17.688
		h-2.988V2.756h10.486C279.689,2.756,284.786,6.861,284.786,15.07z M261.997,25.318h5.887c4.824,0,8.31-0.796,10.458-2.389
		c2.147-1.593,3.222-4.177,3.222-7.753c0-3.303-1.016-5.75-3.046-7.343c-2.031-1.593-5.175-2.389-9.433-2.389h-7.088V25.318z"/>
	<path fill="#FFFFFF" d="M317.741,34.563c0,3.574-1.313,6.406-3.939,8.496c-2.626,2.09-6.116,3.134-10.471,3.134
		c-5.233,0-9.246-0.575-12.038-1.726V41.48c3.085,1.309,7.019,1.963,11.804,1.963c3.514,0,6.301-0.805,8.361-2.418
		c2.061-1.611,3.09-3.727,3.09-6.345c0-1.621-0.342-2.964-1.025-4.028s-1.796-2.035-3.338-2.914
		c-1.543-0.879-3.809-1.826-6.795-2.842c-4.375-1.504-7.396-3.129-9.065-4.877s-2.504-4.077-2.504-6.987
		c0-3.203,1.255-5.815,3.764-7.836s5.735-3.032,9.681-3.032c4.021,0,7.801,0.758,11.335,2.275l-1.083,2.577
		c-3.555-1.484-6.952-2.227-10.193-2.227c-3.163,0-5.682,0.733-7.557,2.2s-2.812,3.462-2.812,5.985c0,1.582,0.288,2.881,0.864,3.896
		s1.518,1.929,2.826,2.739s3.554,1.782,6.736,2.915c3.339,1.152,5.848,2.271,7.527,3.354c1.679,1.084,2.904,2.314,3.676,3.691
		S317.741,32.61,317.741,34.563z"/>
</g>
</svg>
