<?xml version="1.0" encoding="UTF-8"?>
<svg xmlns="http://www.w3.org/2000/svg" xmlns:xlink="http://www.w3.org/1999/xlink" width="px" height="px" viewBox="0 0 600 600" version="1.1">
<g id="surface1">
<path style=" stroke:none;fill-rule:evenodd;fill:rgb(26.666667%,37.647059%,62.745098%);fill-opacity:1;" d="M 320.480469 600 L 33.117188 600 C 14.820312 600 0 585.167969 0 566.882812 L 0 33.113281 C 0 14.824219 14.824219 0 33.117188 0 L 566.886719 0 C 585.175781 0 600 14.824219 600 33.113281 L 600 566.882812 C 600 585.171875 585.171875 600 566.886719 600 L 413.992188 600 L 413.992188 367.648438 L 491.980469 367.648438 L 503.660156 277.09375 L 413.992188 277.09375 L 413.992188 219.28125 C 413.992188 193.066406 421.269531 175.199219 458.867188 175.199219 L 506.816406 175.179688 L 506.816406 94.1875 C 498.523438 93.085938 470.058594 90.621094 436.945312 90.621094 C 367.808594 90.621094 320.480469 132.820312 320.480469 210.316406 L 320.480469 277.09375 L 242.289062 277.09375 L 242.289062 367.648438 L 320.480469 367.648438 Z M 320.480469 600 "/>
</g>
</svg>
